# xmcd CD database file
#
# Track frame offsets:
#	150
#	29240
#	39537
#	58415
#	73072
#	90532
#	104370
#	118675
#	144132
#	157890
#
# Disc length: 2349 seconds
#
# Revision: 4
# Processed by: cddbd v1.5.2PL0 Copyright (c) Steve Scherf et al.
# Submitted via: CDex 1.86
#
DISCID=8b092b0a
DTITLE=Alabama - My Home's In Alabama
DYEAR=1980
DGENRE=Country
TTITLE0=My Home's In Alabama
TTITLE1=Hanging Up My Travelin' Shoes
TTITLE2=Why Lady Why
TTITLE3=Getting Over You
TTITLE4=I Wanna Come Over
TTITLE5=Tennessee River
TTITLE6=Some Other Place, Some Other Time
TTITLE7=Can't Forget About You
TTITLE8=Get It While It's Hot
TTITLE9=Keep On Dreamin'
EXTD=YEAR: 1980
EXTT0=
EXTT1=
EXTT2=
EXTT3=
EXTT4=
EXTT5=
EXTT6=
EXTT7=
EXTT8=
EXTT9=
PLAYORDER=
